# xmcd
#
# Track frame offsets:
#	182
#	21417
#	39985
#	59595
#	74385
#	93407
#	112755
#	129595
#	149512
#	164552
#	189342
#	210507
#	234285
#	252885
#	269450
#	289710
#	310435
#
# Disc length: 4431 seconds
#
# Revision: 0
# Processed by: cddbd v1.5.2PL0 Copyright (c) Steve Scherf et al.
# Submitted via: EasyCDDAExtractor 11.0.2.1
#
DISCID=fa114d11
DTITLE=Lissette - Mis Mejores Canciones - 17 Super Exitos
DYEAR=1993
DGENRE=Latin
TTITLE0=Un Poco Mas
TTITLE1=Maniqui
TTITLE2=Vampiro
TTITLE3=Hablame
TTITLE4=Como Decirte
TTITLE5=Descartame
TTITLE6=Perdon
TTITLE7=Ni Su Hombre Ni Su Amante
TTITLE8=A Pesar De Todo
TTITLE9=Panico Organizado
TTITLE10=Tan Sola
TTITLE11=Amantes Por Atraccion
TTITLE12=No Te Quiero Mas
TTITLE13=Mal Sueño
TTITLE14=No Va
TTITLE15=Trampas De Luz
TTITLE16=Tu Caso Soy Yo
EXTD=
EXTT0=
EXTT1=
EXTT2=
EXTT3=
EXTT4=
EXTT5=
EXTT6=
EXTT7=
EXTT8=
EXTT9=
EXTT10=
EXTT11=
EXTT12=
EXTT13=
EXTT14=
EXTT15=
EXTT16=
PLAYORDER=
